<svg width="30" height="30" viewBox="0 0 30 30" fill="none" xmlns="http://www.w3.org/2000/svg">
<path d="M15 30C23.2843 30 30 23.2843 30 15C30 6.71573 23.2843 0 15 0C6.71573 0 0 6.71573 0 15C0 23.2843 6.71573 30 15 30Z" fill="#0048CE"/>
<path d="M11.4009 20.0094L11.658 20.1611C12.7379 20.7992 13.9761 21.1366 15.2387 21.1373H15.2414C19.1191 21.1373 22.275 17.9961 22.2765 14.1355C22.2771 12.2645 21.5461 10.5054 20.2178 9.18181C18.8895 7.85849 17.1234 7.12921 15.2439 7.12844C11.3634 7.12844 8.20741 10.2691 8.20595 14.1298C8.20544 15.4527 8.57717 16.7412 9.28151 17.8558L9.44892 18.1208L8.73804 20.7045L11.4009 20.0094ZM6.70593 22.7059L7.90673 18.3407C7.16606 17.0632 6.77642 15.614 6.77703 14.1294C6.77884 9.48465 10.5756 5.70587 15.2416 5.70587C17.5057 5.70684 19.6309 6.5841 21.229 8.17639C22.8269 9.76867 23.7067 11.8852 23.7059 14.1362C23.704 18.7806 19.9064 22.5601 15.2416 22.5601C15.2413 22.5601 15.2418 22.5601 15.2416 22.5601H15.238C13.8214 22.5596 12.4295 22.2059 11.1932 21.5346L6.70593 22.7059Z" fill="white"/>
<path fill-rule="evenodd" clip-rule="evenodd" d="M13.7797 11.3019C13.6507 11.0147 13.5149 11.009 13.3922 11.0039C13.2917 10.9997 13.1768 10.9999 13.0621 10.9999C12.9472 10.9999 12.7606 11.0431 12.6029 11.2157C12.4449 11.3882 12 11.8054 12 12.6537C12 13.5022 12.6172 14.322 12.7032 14.4372C12.7894 14.5521 13.8947 16.3488 15.6452 17.04C17.1001 17.6144 17.3962 17.5001 17.7119 17.4713C18.0277 17.4426 18.7309 17.0543 18.8744 16.6517C19.018 16.2491 19.018 15.9039 18.9749 15.8319C18.9319 15.76 18.817 15.7168 18.6448 15.6307C18.4725 15.5444 17.6258 15.1272 17.4679 15.0697C17.31 15.0122 17.1952 14.9835 17.0803 15.1561C16.9655 15.3285 16.6357 15.7168 16.5352 15.8319C16.4347 15.9471 16.3342 15.9615 16.162 15.8752C15.9897 15.7887 15.435 15.6068 14.7769 15.0194C14.2649 14.5624 13.9193 13.9979 13.8188 13.8253C13.7183 13.6528 13.8081 13.5594 13.8944 13.4735C13.9718 13.3962 14.0667 13.2721 14.1528 13.1715C14.2388 13.0708 14.2674 12.9989 14.3249 12.8839C14.3823 12.7688 14.3536 12.6681 14.3106 12.5818C14.2674 12.4956 13.9327 11.6428 13.7796 11.3019" fill="white"/>
</svg>
